<svg width="179" height="33" viewBox="0 0 179 33" fill="none" xmlns="http://www.w3.org/2000/svg">
<path d="M26.502 4.04C26.5554 4.49333 26.582 5.26667 26.582 6.36C26.6087 7.42667 26.622 8.70667 26.622 10.2C26.622 11.6933 26.622 13.2667 26.622 14.92C26.622 16.5733 26.6087 18.2133 26.582 19.84C26.582 21.4667 26.5687 22.9467 26.542 24.28C26.542 25.6133 26.542 26.7067 26.542 27.56C26.542 28.3867 26.5554 28.8533 26.582 28.96C26.6354 29.1733 26.5954 29.52 26.462 30C26.3287 30.4533 26.1154 30.8933 25.822 31.32C25.5287 31.72 25.1554 31.96 24.702 32.04C24.2754 32.1467 23.6754 32.1467 22.902 32.04C22.1554 31.96 21.3954 31.76 20.622 31.44C19.8754 31.0933 19.2754 30.6 18.822 29.96C18.5554 29.5867 18.142 29.0533 17.582 28.36C17.0487 27.64 16.4487 26.8667 15.782 26.04C15.142 25.1867 14.502 24.3733 13.862 23.6C13.2487 22.8 12.7287 22.12 12.302 21.56C11.8754 20.9733 11.6087 20.6133 11.502 20.48C11.262 20.1067 10.862 19.7333 10.302 19.36C9.7687 18.96 9.34203 18.8133 9.02203 18.92C8.70203 19.0267 8.46203 19.36 8.30203 19.92C8.14203 20.4533 8.03537 21.0267 7.98203 21.64C7.9287 22.04 7.90203 22.6533 7.90203 23.48C7.90203 24.28 7.90203 25.1067 7.90203 25.96C7.9287 26.8133 7.9287 27.5067 7.90203 28.04C7.87536 28.9733 8.1687 29.8667 8.78203 30.72C8.5687 30.8533 8.14203 31.0667 7.50203 31.36C6.86203 31.6267 6.18203 31.8667 5.46203 32.08C4.74203 32.2933 4.1287 32.3867 3.62203 32.36C2.7687 32.3067 2.0087 31.8667 1.34203 31.04C0.702031 30.2133 0.368698 29.1867 0.342031 27.96C0.342031 27.72 0.328698 27.0533 0.302031 25.96C0.302031 24.84 0.288698 23.4533 0.262031 21.8C0.262031 20.1467 0.262031 18.36 0.262031 16.44C0.262031 14.52 0.248698 12.6267 0.222031 10.76C0.222031 8.86666 0.208698 7.14666 0.182031 5.6C0.182031 4.02667 0.182031 2.77333 0.182031 1.84C0.182031 0.906666 0.182031 0.439999 0.182031 0.439999C1.8087 0.386666 3.18203 0.506666 4.30203 0.799999C5.42203 1.09333 6.35536 1.62667 7.10203 2.4C7.42203 2.69333 7.8887 3.21333 8.50203 3.96C9.11537 4.70667 9.78203 5.56 10.502 6.52C11.2487 7.45333 11.9687 8.38666 12.662 9.32C13.382 10.2533 14.0087 11.08 14.542 11.8C15.0754 12.4933 15.422 12.9467 15.582 13.16C16.0087 13.6933 16.4354 14.12 16.862 14.44C17.3154 14.7333 17.6887 14.8267 17.982 14.72C18.622 14.5067 18.942 13.6133 18.942 12.04L18.862 0.439999C19.1554 0.386666 19.662 0.373333 20.382 0.399999C21.1287 0.426665 21.9154 0.546666 22.742 0.759999C23.6487 0.973331 24.4754 1.33333 25.222 1.84C25.9687 2.34667 26.3954 3.08 26.502 4.04ZM49.9905 21.96C50.6571 22.4133 51.0838 23.0667 51.2705 23.92C51.4838 24.7467 51.4571 25.6533 51.1905 26.64C50.9505 27.6267 50.4571 28.5733 49.7105 29.48C48.9638 30.36 47.9505 31.0933 46.6705 31.68C45.4171 32.2667 43.8971 32.5733 42.1105 32.6C40.6171 32.6267 39.1505 32.44 37.7105 32.04C36.2971 31.64 35.0038 31.0267 33.8305 30.2C32.6838 29.3733 31.7505 28.3067 31.0305 27C30.3105 25.6933 29.9105 24.1333 29.8305 22.32C29.8038 21.9467 29.8038 21.56 29.8305 21.16C29.8571 20.76 29.8838 20.3467 29.9105 19.92C29.9105 19.8133 29.9105 19.7067 29.9105 19.6C29.9371 19.4933 29.9638 19.3867 29.9905 19.28C30.2571 17.68 30.8038 16.2133 31.6305 14.88C32.4838 13.5467 33.5238 12.4133 34.7505 11.48C35.9771 10.5467 37.2838 9.86667 38.6705 9.44C40.0838 8.98667 41.4705 8.82667 42.8305 8.96C44.9371 9.17333 46.5638 9.73333 47.7105 10.64C48.8838 11.5467 49.6438 12.6667 49.9905 14C50.3638 15.3067 50.3771 16.72 50.0305 18.24C49.8438 18.9867 49.4171 19.7333 48.7505 20.48C48.1105 21.2 47.3105 21.8533 46.3505 22.44C45.3905 23 44.3638 23.44 43.2705 23.76C42.2038 24.0533 41.1638 24.1733 40.1505 24.12C39.6438 24.0933 39.3771 24.2533 39.3505 24.6C39.3238 24.92 39.4705 25.28 39.7905 25.68C40.1105 26.0533 40.5371 26.3067 41.0705 26.44C42.3238 26.7067 43.4971 26.72 44.5905 26.48C45.7105 26.2133 46.5638 25.8533 47.1505 25.4C47.6305 25.0267 48.1371 24.5333 48.6705 23.92C49.2038 23.28 49.6438 22.6267 49.9905 21.96ZM41.2305 17.92C41.8438 17.8667 42.3771 17.68 42.8305 17.36C43.3105 17.0133 43.5505 16.6533 43.5505 16.28C43.5771 15.7467 43.4438 15.32 43.1505 15C42.8838 14.6533 42.4171 14.4933 41.7505 14.52C41.0038 14.5467 40.2838 14.6533 39.5905 14.84C38.8971 15.0267 38.4838 15.4133 38.3505 16C38.2705 16.4 38.3905 16.7467 38.7105 17.04C39.0305 17.3333 39.4305 17.56 39.9105 17.72C40.3905 17.8533 40.8305 17.92 41.2305 17.92ZM74.7952 21.96C75.4618 22.4133 75.8885 23.0667 76.0752 23.92C76.2885 24.7467 76.2618 25.6533 75.9952 26.64C75.7552 27.6267 75.2618 28.5733 74.5152 29.48C73.7685 30.36 72.7552 31.0933 71.4752 31.68C70.2218 32.2667 68.7018 32.5733 66.9152 32.6C65.4218 32.6267 63.9552 32.44 62.5152 32.04C61.1018 31.64 59.8085 31.0267 58.6352 30.2C57.4885 29.3733 56.5552 28.3067 55.8352 27C55.1152 25.6933 54.7152 24.1333 54.6352 22.32C54.6085 21.9467 54.6085 21.56 54.6352 21.16C54.6618 20.76 54.6885 20.3467 54.7152 19.92C54.7152 19.8133 54.7152 19.7067 54.7152 19.6C54.7418 19.4933 54.7685 19.3867 54.7952 19.28C55.0618 17.68 55.6085 16.2133 56.4352 14.88C57.2885 13.5467 58.3285 12.4133 59.5552 11.48C60.7818 10.5467 62.0885 9.86667 63.4752 9.44C64.8885 8.98667 66.2752 8.82667 67.6352 8.96C69.7418 9.17333 71.3685 9.73333 72.5152 10.64C73.6885 11.5467 74.4485 12.6667 74.7952 14C75.1685 15.3067 75.1818 16.72 74.8352 18.24C74.6485 18.9867 74.2218 19.7333 73.5552 20.48C72.9152 21.2 72.1152 21.8533 71.1552 22.44C70.1952 23 69.1685 23.44 68.0752 23.76C67.0085 24.0533 65.9685 24.1733 64.9552 24.12C64.4485 24.0933 64.1818 24.2533 64.1552 24.6C64.1285 24.92 64.2752 25.28 64.5952 25.68C64.9152 26.0533 65.3418 26.3067 65.8752 26.44C67.1285 26.7067 68.3018 26.72 69.3952 26.48C70.5152 26.2133 71.3685 25.8533 71.9552 25.4C72.4352 25.0267 72.9418 24.5333 73.4752 23.92C74.0085 23.28 74.4485 22.6267 74.7952 21.96ZM66.0352 17.92C66.6485 17.8667 67.1818 17.68 67.6352 17.36C68.1152 17.0133 68.3552 16.6533 68.3552 16.28C68.3818 15.7467 68.2485 15.32 67.9552 15C67.6885 14.6533 67.2218 14.4933 66.5552 14.52C65.8085 14.5467 65.0885 14.6533 64.3952 14.84C63.7018 15.0267 63.2885 15.4133 63.1552 16C63.0752 16.4 63.1952 16.7467 63.5152 17.04C63.8352 17.3333 64.2352 17.56 64.7152 17.72C65.1952 17.8533 65.6352 17.92 66.0352 17.92ZM94.8383 9.8C95.1049 10.0667 95.3049 10.56 95.4383 11.28C95.5983 11.9733 95.6383 12.7467 95.5583 13.6C95.5049 14.4267 95.3049 15.1867 94.9583 15.88C94.6383 16.5467 94.1449 17 93.4783 17.24C92.4383 17.6133 91.6783 18.28 91.1983 19.24C90.7183 20.2 90.4383 21.4133 90.3583 22.88V26.28C90.4116 26.7067 90.5849 27.0533 90.8783 27.32C91.1983 27.5867 91.5049 27.7733 91.7983 27.88C92.1183 27.9867 92.2783 28.04 92.2783 28.04C92.2783 28.04 92.2249 28.2267 92.1183 28.6C92.0383 28.9733 91.8783 29.4133 91.6383 29.92C91.3983 30.4267 91.0516 30.92 90.5983 31.4C90.1449 31.8533 89.5583 32.1733 88.8383 32.36C88.4649 32.44 87.9583 32.4533 87.3183 32.4C86.7049 32.3733 86.0783 32.2533 85.4383 32.04C84.7983 31.8267 84.2649 31.5333 83.8383 31.16C83.5983 30.9467 83.3983 30.72 83.2383 30.48C83.0783 30.24 82.9583 29.88 82.8783 29.4C82.8249 28.92 82.7983 28.24 82.7983 27.36V23.08C82.7716 21.5333 82.4383 20.2533 81.7983 19.24C81.1583 18.2 80.3183 17.3067 79.2783 16.56C78.7983 16.2133 78.4516 15.6533 78.2383 14.88C78.0516 14.08 77.9316 13.24 77.8783 12.36C77.8249 11.48 77.8116 10.7333 77.8383 10.12C77.9716 10.1467 78.3316 10.2 78.9183 10.28C79.5049 10.36 80.0116 10.4 80.4383 10.4C81.2916 10.3733 81.8783 10.04 82.1983 9.4C82.5183 8.76 82.6783 7.96 82.6783 7L82.6383 3.44C82.8783 3.41333 83.2783 3.38667 83.8383 3.36C84.4249 3.30666 85.0649 3.30666 85.7583 3.36C86.4516 3.41333 87.1183 3.54667 87.7583 3.76C88.4249 3.94666 88.9849 4.25333 89.4383 4.68C89.9183 5.10666 90.1983 5.68 90.2783 6.4C90.2783 6.48 90.2783 6.58667 90.2783 6.72C90.3049 6.82667 90.3183 6.96 90.3183 7.12H90.3583C90.3583 7.46667 90.3983 7.88 90.4783 8.36C90.5849 8.84 90.7316 9.24 90.9183 9.56C91.1049 9.82667 91.3983 10.0267 91.7983 10.16C92.1983 10.2667 92.5849 10.3333 92.9583 10.36C93.3583 10.36 93.6516 10.3333 93.8383 10.28C94.1316 10.2 94.3449 10.1333 94.4783 10.08C94.6116 10 94.7316 9.90667 94.8383 9.8Z" fill="#418D89"/>
<path d="M121.375 24.08C121.722 24.3733 121.948 24.96 122.055 25.84C122.188 26.6933 122.148 27.5867 121.935 28.52C121.775 29.2933 121.482 30.04 121.055 30.76C120.628 31.4533 120.068 31.8667 119.375 32C119.108 32.0533 118.495 32.08 117.535 32.08C116.575 32.1067 115.442 32.1067 114.135 32.08C112.855 32.08 111.548 32.0667 110.215 32.04C108.908 32.04 107.735 32.04 106.695 32.04C105.682 32.0667 104.962 32.1067 104.535 32.16C103.442 32.3467 102.322 32.4133 101.175 32.36C100.055 32.3067 99.2682 32.1467 98.8148 31.88C99.0015 31.5067 99.1615 30.9467 99.2948 30.2C99.4282 29.4267 99.5348 28.5867 99.6148 27.68C99.6948 26.7733 99.7215 25.9067 99.6948 25.08L99.5348 0.439999C99.8282 0.386666 100.335 0.373333 101.055 0.399999C101.802 0.426665 102.588 0.546666 103.415 0.759999C104.322 0.973331 105.135 1.37333 105.855 1.96C106.575 2.54667 107.015 3.29333 107.175 4.2C107.228 4.49333 107.268 5.08 107.295 5.96C107.322 6.81333 107.335 7.82667 107.335 9C107.362 10.1733 107.362 11.3733 107.335 12.6C107.335 13.8267 107.335 14.9733 107.335 16.04C107.335 17.1067 107.322 17.9733 107.295 18.64C107.295 19.3067 107.295 19.64 107.295 19.64C107.268 20.6533 107.375 21.5733 107.615 22.4C107.855 23.2 108.202 23.8267 108.655 24.28C109.002 24.6267 109.428 24.8667 109.935 25C110.442 25.1333 111.068 25.2267 111.815 25.28C112.135 25.3067 112.628 25.3067 113.295 25.28C113.988 25.2533 114.748 25.2133 115.575 25.16C116.402 25.08 117.215 24.9867 118.015 24.88C118.842 24.7733 119.562 24.6533 120.175 24.52C120.788 24.3867 121.188 24.24 121.375 24.08ZM129.818 8.2C128.912 8.22667 128.098 7.97333 127.378 7.44C126.685 6.90667 126.152 6.25333 125.778 5.48C125.432 4.68 125.298 3.92 125.378 3.2C125.512 2.10667 126.005 1.33333 126.858 0.879998C127.712 0.426665 128.605 0.186665 129.538 0.159997C130.872 0.106665 131.912 0.453332 132.658 1.2C133.405 1.94666 133.778 2.8 133.778 3.76C133.778 4.4 133.632 5.05333 133.338 5.72C133.072 6.38667 132.645 6.96 132.058 7.44C131.472 7.89333 130.725 8.14667 129.818 8.2ZM134.058 27.96C134.085 28.44 134.232 28.8533 134.498 29.2C134.792 29.52 135.138 29.8267 135.538 30.12C135.352 30.36 135.112 30.6133 134.818 30.88C134.525 31.1467 134.085 31.4 133.498 31.64C132.938 31.8533 132.125 32.0267 131.058 32.16C130.712 32.1867 130.272 32.1467 129.738 32.04C129.205 31.96 128.672 31.7067 128.138 31.28C127.632 30.8267 127.218 30.12 126.898 29.16C126.578 28.1733 126.445 26.8267 126.498 25.12C126.525 24.8267 126.525 24.2533 126.498 23.4C126.498 22.5467 126.485 21.5333 126.458 20.36C126.458 19.1867 126.445 17.9733 126.418 16.72C126.418 15.4667 126.405 14.3067 126.378 13.24C126.378 12.1467 126.365 11.2667 126.338 10.6C126.338 9.90667 126.338 9.56 126.338 9.56C126.578 9.53333 126.978 9.50667 127.538 9.48C128.125 9.42667 128.765 9.42667 129.458 9.48C130.152 9.53333 130.818 9.66666 131.458 9.88C132.125 10.0667 132.685 10.3733 133.138 10.8C133.618 11.2267 133.898 11.8 133.978 12.52C134.112 13.5333 134.165 14.8933 134.138 16.6C134.112 18.28 134.072 20.12 134.018 22.12C133.965 24.0933 133.978 26.04 134.058 27.96ZM149.177 8.76C151.15 8.76 152.83 9.04 154.217 9.6C155.63 10.16 156.71 10.8533 157.457 11.68C158.203 12.5067 158.563 13.32 158.537 14.12C158.537 14.5467 158.35 15.0267 157.977 15.56C157.603 16.0933 157.11 16.5467 156.497 16.92C155.91 17.2667 155.257 17.4 154.537 17.32C154.723 16.84 154.603 16.3867 154.177 15.96C153.75 15.5333 153.137 15.1867 152.337 14.92C151.537 14.6267 150.67 14.4667 149.737 14.44C148.67 14.3867 147.95 14.5067 147.577 14.8C147.203 15.0667 146.99 15.36 146.937 15.68C146.857 16.0267 147.017 16.3333 147.417 16.6C147.817 16.84 148.337 17.0667 148.977 17.28C149.643 17.4667 150.337 17.64 151.057 17.8C151.803 17.9333 152.483 18.0533 153.097 18.16C153.737 18.2667 154.23 18.3733 154.577 18.48C156.177 18.96 157.35 19.5867 158.097 20.36C158.843 21.1067 159.323 21.9067 159.537 22.76C159.777 23.6133 159.87 24.4533 159.817 25.28C159.763 26.6133 159.417 27.7333 158.777 28.64C158.163 29.52 157.39 30.2267 156.457 30.76C155.55 31.2933 154.59 31.6933 153.577 31.96C152.59 32.2 151.657 32.36 150.777 32.44C149.923 32.52 149.27 32.56 148.817 32.56C147.43 32.5333 146.123 32.3867 144.897 32.12C143.697 31.88 142.657 31.56 141.777 31.16C140.923 30.76 140.31 30.3333 139.937 29.88C139.67 29.56 139.417 29.1067 139.177 28.52C138.937 27.9333 138.79 27.3067 138.737 26.64C138.71 25.9467 138.857 25.2933 139.177 24.68C139.497 24.04 140.083 23.52 140.937 23.12C141.097 23.6533 141.523 24.1333 142.217 24.56C142.937 24.9867 143.79 25.3333 144.777 25.6C145.79 25.8667 146.79 26.0533 147.777 26.16C148.737 26.24 149.643 26.2267 150.497 26.12C151.35 26.0133 151.817 25.7067 151.897 25.2C151.95 24.9333 151.817 24.6667 151.497 24.4C151.177 24.1333 150.59 23.9067 149.737 23.72C148.83 23.5067 148.03 23.3467 147.337 23.24C146.67 23.1067 146.003 22.96 145.337 22.8C144.083 22.48 142.99 21.9733 142.057 21.28C141.123 20.5867 140.417 19.76 139.937 18.8C139.483 17.8133 139.323 16.7733 139.457 15.68C139.67 14.1067 140.243 12.8133 141.177 11.8C142.137 10.7867 143.323 10.0267 144.737 9.52C146.15 9.01333 147.63 8.76 149.177 8.76ZM178.041 9.8C178.308 10.0667 178.508 10.56 178.641 11.28C178.801 11.9733 178.841 12.7467 178.761 13.6C178.708 14.4267 178.508 15.1867 178.161 15.88C177.841 16.5467 177.348 17 176.681 17.24C175.641 17.6133 174.881 18.28 174.401 19.24C173.921 20.2 173.641 21.4133 173.561 22.88V26.28C173.615 26.7067 173.788 27.0533 174.081 27.32C174.401 27.5867 174.708 27.7733 175.001 27.88C175.321 27.9867 175.481 28.04 175.481 28.04C175.481 28.04 175.428 28.2267 175.321 28.6C175.241 28.9733 175.081 29.4133 174.841 29.92C174.601 30.4267 174.255 30.92 173.801 31.4C173.348 31.8533 172.761 32.1733 172.041 32.36C171.668 32.44 171.161 32.4533 170.521 32.4C169.908 32.3733 169.281 32.2533 168.641 32.04C168.001 31.8267 167.468 31.5333 167.041 31.16C166.801 30.9467 166.601 30.72 166.441 30.48C166.281 30.24 166.161 29.88 166.081 29.4C166.028 28.92 166.001 28.24 166.001 27.36V23.08C165.975 21.5333 165.641 20.2533 165.001 19.24C164.361 18.2 163.521 17.3067 162.481 16.56C162.001 16.2133 161.655 15.6533 161.441 14.88C161.255 14.08 161.135 13.24 161.081 12.36C161.028 11.48 161.015 10.7333 161.041 10.12C161.175 10.1467 161.535 10.2 162.121 10.28C162.708 10.36 163.215 10.4 163.641 10.4C164.495 10.3733 165.081 10.04 165.401 9.4C165.721 8.76 165.881 7.96 165.881 7L165.841 3.44C166.081 3.41333 166.481 3.38667 167.041 3.36C167.628 3.30666 168.268 3.30666 168.961 3.36C169.655 3.41333 170.321 3.54667 170.961 3.76C171.628 3.94666 172.188 4.25333 172.641 4.68C173.121 5.10666 173.401 5.68 173.481 6.4C173.481 6.48 173.481 6.58667 173.481 6.72C173.508 6.82667 173.521 6.96 173.521 7.12H173.561C173.561 7.46667 173.601 7.88 173.681 8.36C173.788 8.84 173.935 9.24 174.121 9.56C174.308 9.82667 174.601 10.0267 175.001 10.16C175.401 10.2667 175.788 10.3333 176.161 10.36C176.561 10.36 176.855 10.3333 177.041 10.28C177.335 10.2 177.548 10.1333 177.681 10.08C177.815 10 177.935 9.90667 178.041 9.8Z" fill="white"/>
</svg>
