<svg width="66" height="65" viewBox="0 0 66 65" fill="none" xmlns="http://www.w3.org/2000/svg">
<path d="M26.8842 24.1735C26.858 24.9733 26.988 25.7705 27.2669 26.5196C27.5457 27.2686 27.9679 27.9548 28.5094 28.5391C29.0508 29.1234 29.7009 29.5942 30.4226 29.9247C31.1442 30.2552 31.9232 30.439 32.7152 30.4654C33.5071 30.4919 34.2964 30.3605 35.0381 30.0789C35.7798 29.7973 36.4593 29.3709 37.0378 28.824C37.6163 28.2772 38.0825 27.6206 38.4098 26.8919C38.7371 26.1631 38.919 25.3763 38.9452 24.5765C38.9714 23.7767 38.8413 22.9795 38.5625 22.2304C38.2836 21.4814 37.8614 20.7952 37.32 20.2109C36.7785 19.6266 36.1284 19.1558 35.4068 18.8253C34.6851 18.4948 33.9061 18.311 33.1142 18.2846C32.3222 18.2581 31.5329 18.3895 30.7912 18.6711C30.0495 18.9527 29.37 19.3791 28.7915 19.926C28.213 20.4728 27.7468 21.1294 27.4196 21.8581C27.0923 22.5869 26.9104 23.3737 26.8842 24.1735Z" stroke="#418D89" stroke-width="3" stroke-linecap="round" stroke-linejoin="round"/>
<path d="M44.9824 46.7187C43.9938 44.3137 42.3196 42.2582 40.1716 40.8119C38.0236 39.3657 35.4982 38.5938 32.9148 38.5938C30.3314 38.5938 27.806 39.3657 25.658 40.8119C23.51 42.2581 21.8358 44.3137 20.8472 46.7187" stroke="#418D89" stroke-width="3" stroke-linecap="round" stroke-linejoin="round"/>
</svg>
